<svg width="81" height="81" viewBox="0 0 81 81" fill="none" xmlns="http://www.w3.org/2000/svg">
<rect x="68.8774" y="12.3416" width="56.1763" height="56.1763" transform="rotate(90 68.8774 12.3416)" stroke="#9F7659"/>
<rect x="40.4297" width="57.1763" height="57.1763" transform="rotate(45 40.4297 0)" fill="#4D3A19"/>
<path d="M32.5804 49.4237C31.0724 49.4237 29.7811 49.181 28.7064 48.6957C27.6318 48.193 26.7564 47.517 26.0804 46.6677C25.4218 45.8184 24.9278 44.839 24.5984 43.7297C24.2864 42.603 24.1304 41.4157 24.1304 40.1677V38.6857C24.1304 36.9524 24.4338 35.3837 25.0404 33.9797C25.6471 32.5757 26.5744 31.4577 27.8224 30.6257C29.0704 29.7937 30.6564 29.3777 32.5804 29.3777C34.5044 29.3777 36.0818 29.7937 37.3124 30.6257C38.5604 31.4577 39.4878 32.5757 40.0944 33.9797C40.7011 35.3837 41.0044 36.9524 41.0044 38.6857V40.1677C41.0044 41.4157 40.8398 42.603 40.5104 43.7297C40.1984 44.839 39.7044 45.8184 39.0284 46.6677C38.3698 47.517 37.5031 48.193 36.4284 48.6957C35.3711 49.181 34.0884 49.4237 32.5804 49.4237ZM32.5804 45.4977C33.9844 45.4977 35.0244 45.0124 35.7004 44.0417C36.3938 43.0537 36.7404 41.5284 36.7404 39.4657C36.7404 37.2817 36.3851 35.713 35.6744 34.7597C34.9811 33.789 33.9498 33.3037 32.5804 33.3037C31.1764 33.3037 30.1278 33.789 29.4344 34.7597C28.7411 35.713 28.3944 37.2644 28.3944 39.4137C28.3944 41.4937 28.7324 43.0277 29.4084 44.0157C30.1018 45.0037 31.1591 45.4977 32.5804 45.4977ZM50.9545 49.4237C49.4465 49.4237 48.1465 49.1377 47.0545 48.5657C45.9625 47.9764 45.1218 47.1877 44.5325 46.1997C43.9605 45.2117 43.6745 44.1197 43.6745 42.9237H47.7825C47.7825 43.513 47.9125 44.033 48.1725 44.4837C48.4498 44.917 48.8312 45.2637 49.3165 45.5237C49.8018 45.7664 50.3565 45.8877 50.9805 45.8877C51.6738 45.8877 52.2545 45.749 52.7225 45.4717C53.2078 45.177 53.5805 44.787 53.8405 44.3017C54.1005 43.799 54.2305 43.2357 54.2305 42.6117C54.2305 41.9704 54.1005 41.407 53.8405 40.9217C53.5978 40.419 53.2338 40.0204 52.7485 39.7257C52.2805 39.431 51.7085 39.2837 51.0325 39.2837C50.4085 39.2837 49.8452 39.4137 49.3425 39.6737C48.8398 39.9337 48.4672 40.263 48.2245 40.6617H44.2205L45.1825 29.9497H56.7005V33.5897H46.8725L48.5105 32.4977L47.9385 38.6597L46.9505 38.3997C47.4705 37.7757 48.0945 37.2557 48.8225 36.8397C49.5678 36.4064 50.5385 36.1897 51.7345 36.1897C53.1212 36.1897 54.2998 36.4757 55.2705 37.0477C56.2585 37.6024 57.0125 38.3564 57.5325 39.3097C58.0698 40.2457 58.3385 41.2944 58.3385 42.4557V42.7937C58.3385 43.955 58.0525 45.0384 57.4805 46.0437C56.9085 47.049 56.0678 47.8637 54.9585 48.4877C53.8665 49.1117 52.5318 49.4237 50.9545 49.4237Z" fill="#EBDAC1"/>
</svg>
