<svg width="81" height="81" viewBox="0 0 81 81" fill="none" xmlns="http://www.w3.org/2000/svg">
<rect x="68.8774" y="12.3416" width="56.1763" height="56.1763" transform="rotate(90 68.8774 12.3416)" stroke="#9F7659"/>
<rect x="40.4297" width="57.1763" height="57.1763" transform="rotate(45 40.4297 0)" fill="#4D3A19"/>
<path d="M31.7123 49.4237C30.2043 49.4237 28.9129 49.181 27.8383 48.6957C26.7636 48.193 25.8883 47.517 25.2123 46.6677C24.5536 45.8184 24.0596 44.839 23.7303 43.7297C23.4183 42.603 23.2623 41.4157 23.2623 40.1677V38.6857C23.2623 36.9524 23.5656 35.3837 24.1723 33.9797C24.7789 32.5757 25.7063 31.4577 26.9543 30.6257C28.2023 29.7937 29.7883 29.3777 31.7123 29.3777C33.6363 29.3777 35.2136 29.7937 36.4443 30.6257C37.6923 31.4577 38.6196 32.5757 39.2263 33.9797C39.8329 35.3837 40.1363 36.9524 40.1363 38.6857V40.1677C40.1363 41.4157 39.9716 42.603 39.6423 43.7297C39.3303 44.839 38.8363 45.8184 38.1603 46.6677C37.5016 47.517 36.6349 48.193 35.5603 48.6957C34.5029 49.181 33.2203 49.4237 31.7123 49.4237ZM31.7123 45.4977C33.1163 45.4977 34.1563 45.0124 34.8323 44.0417C35.5256 43.0537 35.8723 41.5284 35.8723 39.4657C35.8723 37.2817 35.5169 35.713 34.8063 34.7597C34.1129 33.789 33.0816 33.3037 31.7123 33.3037C30.3083 33.3037 29.2596 33.789 28.5663 34.7597C27.8729 35.713 27.5263 37.2644 27.5263 39.4137C27.5263 41.4937 27.8643 43.0277 28.5403 44.0157C29.2336 45.0037 30.2909 45.4977 31.7123 45.4977ZM42.4684 45.2897V40.8437L49.6704 29.4037L52.9724 31.5617L46.8104 41.3637L47.1744 41.9097H58.5364V45.2897H42.4684ZM52.4264 48.9297V35.2537H56.3524V48.9297H52.4264Z" fill="#EBDAC1"/>
</svg>
