<svg width="81" height="81" viewBox="0 0 81 81" fill="none" xmlns="http://www.w3.org/2000/svg">
<rect x="68.8774" y="12.3416" width="56.1763" height="56.1763" transform="rotate(90 68.8774 12.3416)" stroke="#9F7659"/>
<rect x="40.4297" width="57.1763" height="57.1763" transform="rotate(45 40.4297 0)" fill="#4D3A19"/>
<path d="M35.3861 49.4237C33.8781 49.4237 32.5868 49.181 31.5121 48.6957C30.4374 48.193 29.5621 47.517 28.8861 46.6677C28.2274 45.8184 27.7334 44.839 27.4041 43.7297C27.0921 42.603 26.9361 41.4157 26.9361 40.1677V38.6857C26.9361 36.9524 27.2394 35.3837 27.8461 33.9797C28.4528 32.5757 29.3801 31.4577 30.6281 30.6257C31.8761 29.7937 33.4621 29.3777 35.3861 29.3777C37.3101 29.3777 38.8874 29.7937 40.1181 30.6257C41.3661 31.4577 42.2934 32.5757 42.9001 33.9797C43.5068 35.3837 43.8101 36.9524 43.8101 38.6857V40.1677C43.8101 41.4157 43.6454 42.603 43.3161 43.7297C43.0041 44.839 42.5101 45.8184 41.8341 46.6677C41.1754 47.517 40.3088 48.193 39.2341 48.6957C38.1768 49.181 36.8941 49.4237 35.3861 49.4237ZM35.3861 45.4977C36.7901 45.4977 37.8301 45.0124 38.5061 44.0417C39.1994 43.0537 39.5461 41.5284 39.5461 39.4657C39.5461 37.2817 39.1908 35.713 38.4801 34.7597C37.7868 33.789 36.7554 33.3037 35.3861 33.3037C33.9821 33.3037 32.9334 33.789 32.2401 34.7597C31.5468 35.713 31.2001 37.2644 31.2001 39.4137C31.2001 41.4937 31.5381 43.0277 32.2141 44.0157C32.9074 45.0037 33.9648 45.4977 35.3861 45.4977ZM49.8602 48.9297V32.7577L51.0042 33.6417H46.1422V29.9497H54.0982V48.9297H49.8602Z" fill="#EBDAC1"/>
</svg>
