<svg width="81" height="81" viewBox="0 0 81 81" fill="none" xmlns="http://www.w3.org/2000/svg">
<rect x="68.8774" y="12.3416" width="56.1763" height="56.1763" transform="rotate(90 68.8774 12.3416)" stroke="#9F7659"/>
<rect x="40.4297" width="57.1763" height="57.1763" transform="rotate(45 40.4297 0)" fill="#4D3A19"/>
<path d="M31.5218 49.4237C30.0138 49.4237 28.7225 49.181 27.6478 48.6957C26.5732 48.193 25.6978 47.517 25.0218 46.6677C24.3632 45.8184 23.8692 44.839 23.5398 43.7297C23.2278 42.603 23.0718 41.4157 23.0718 40.1677V38.6857C23.0718 36.9524 23.3752 35.3837 23.9818 33.9797C24.5885 32.5757 25.5158 31.4577 26.7638 30.6257C28.0118 29.7937 29.5978 29.3777 31.5218 29.3777C33.4458 29.3777 35.0232 29.7937 36.2538 30.6257C37.5018 31.4577 38.4292 32.5757 39.0358 33.9797C39.6425 35.3837 39.9458 36.9524 39.9458 38.6857V40.1677C39.9458 41.4157 39.7812 42.603 39.4518 43.7297C39.1398 44.839 38.6458 45.8184 37.9698 46.6677C37.3112 47.517 36.4445 48.193 35.3698 48.6957C34.3125 49.181 33.0298 49.4237 31.5218 49.4237ZM31.5218 45.4977C32.9258 45.4977 33.9658 45.0124 34.6418 44.0417C35.3352 43.0537 35.6818 41.5284 35.6818 39.4657C35.6818 37.2817 35.3265 35.713 34.6158 34.7597C33.9225 33.789 32.8912 33.3037 31.5218 33.3037C30.1178 33.3037 29.0692 33.789 28.3758 34.7597C27.6825 35.713 27.3358 37.2644 27.3358 39.4137C27.3358 41.4937 27.6738 43.0277 28.3498 44.0157C29.0432 45.0037 30.1005 45.4977 31.5218 45.4977ZM50.7539 49.4757C49.3499 49.4757 48.1453 49.2504 47.1399 48.7997C46.1346 48.3317 45.3113 47.6817 44.6699 46.8497C44.0459 46.0004 43.5779 45.0297 43.2659 43.9377C42.9713 42.8457 42.8239 41.6757 42.8239 40.4277V39.3357C42.8239 36.181 43.6299 33.8064 45.2419 32.2117C46.8539 30.5997 49.2286 29.7937 52.3659 29.7937C53.0073 29.7937 53.6399 29.811 54.2639 29.8457C54.8879 29.8804 55.4946 29.9324 56.0839 30.0017V33.5637C55.5119 33.5117 54.8966 33.4684 54.2379 33.4337C53.5793 33.3817 52.9033 33.3557 52.2099 33.3557C50.8233 33.3557 49.7313 33.5897 48.9339 34.0577C48.1366 34.5084 47.5733 35.193 47.2439 36.1117C46.9146 37.0304 46.7499 38.1657 46.7499 39.5177V41.4937L45.8139 42.1177C45.8313 40.8177 46.0913 39.7344 46.5939 38.8677C47.1139 37.9837 47.8246 37.325 48.7259 36.8917C49.6273 36.4584 50.6673 36.2417 51.8459 36.2417C53.1806 36.2417 54.3333 36.5104 55.3039 37.0477C56.2746 37.5677 57.0199 38.3044 57.5399 39.2577C58.0599 40.211 58.3199 41.3377 58.3199 42.6377C58.3199 44.007 58.0079 45.2117 57.3839 46.2517C56.7599 47.2744 55.8759 48.0717 54.7319 48.6437C53.6053 49.1984 52.2793 49.4757 50.7539 49.4757ZM50.6239 45.9397C51.3866 45.9397 52.0279 45.801 52.5479 45.5237C53.0853 45.2464 53.4926 44.8737 53.7699 44.4057C54.0646 43.9204 54.2119 43.357 54.2119 42.7157C54.2119 42.057 54.0733 41.4937 53.7959 41.0257C53.5186 40.5404 53.1199 40.1677 52.5999 39.9077C52.0973 39.6304 51.4733 39.4917 50.7279 39.4917C50.0519 39.4917 49.4279 39.613 48.8559 39.8557C48.3013 40.081 47.8593 40.4364 47.5299 40.9217C47.2006 41.3897 47.0359 41.9877 47.0359 42.7157C47.0359 43.3397 47.1659 43.8944 47.4259 44.3797C47.7033 44.865 48.1106 45.2464 48.6479 45.5237C49.1853 45.801 49.8439 45.9397 50.6239 45.9397Z" fill="#EBDAC1"/>
</svg>
