<svg width="81" height="81" viewBox="0 0 81 81" fill="none" xmlns="http://www.w3.org/2000/svg">
<rect x="68.8774" y="12.3416" width="56.1763" height="56.1763" transform="rotate(90 68.8774 12.3416)" stroke="#9F7659"/>
<rect x="40.4297" width="57.1763" height="57.1763" transform="rotate(45 40.4297 0)" fill="#4D3A19"/>
<path d="M32.7328 49.4237C31.2248 49.4237 29.9334 49.181 28.8588 48.6957C27.7841 48.193 26.9088 47.517 26.2328 46.6677C25.5741 45.8184 25.0801 44.839 24.7508 43.7297C24.4388 42.603 24.2828 41.4157 24.2828 40.1677V38.6857C24.2828 36.9524 24.5861 35.3837 25.1928 33.9797C25.7994 32.5757 26.7268 31.4577 27.9748 30.6257C29.2228 29.7937 30.8088 29.3777 32.7328 29.3777C34.6568 29.3777 36.2341 29.7937 37.4648 30.6257C38.7128 31.4577 39.6401 32.5757 40.2468 33.9797C40.8534 35.3837 41.1568 36.9524 41.1568 38.6857V40.1677C41.1568 41.4157 40.9921 42.603 40.6628 43.7297C40.3508 44.839 39.8568 45.8184 39.1808 46.6677C38.5221 47.517 37.6554 48.193 36.5808 48.6957C35.5234 49.181 34.2408 49.4237 32.7328 49.4237ZM32.7328 45.4977C34.1368 45.4977 35.1768 45.0124 35.8528 44.0417C36.5461 43.0537 36.8928 41.5284 36.8928 39.4657C36.8928 37.2817 36.5374 35.713 35.8268 34.7597C35.1334 33.789 34.1021 33.3037 32.7328 33.3037C31.3288 33.3037 30.2801 33.789 29.5868 34.7597C28.8934 35.713 28.5468 37.2644 28.5468 39.4137C28.5468 41.4937 28.8848 43.0277 29.5608 44.0157C30.2541 45.0037 31.3114 45.4977 32.7328 45.4977ZM50.6909 49.4237C49.2175 49.4237 47.9349 49.155 46.8429 48.6177C45.7682 48.063 44.9449 47.3177 44.3729 46.3817C43.8009 45.4457 43.5149 44.3884 43.5149 43.2097H47.6229C47.6229 44.007 47.8915 44.657 48.4289 45.1597C48.9662 45.645 49.7202 45.8877 50.6909 45.8877C51.3322 45.8877 51.8782 45.7664 52.3289 45.5237C52.7795 45.281 53.1262 44.9517 53.3689 44.5357C53.6115 44.1024 53.7329 43.617 53.7329 43.0797C53.7329 42.2477 53.4642 41.563 52.9269 41.0257C52.4069 40.4884 51.6615 40.2197 50.6909 40.2197C50.1709 40.2197 49.7115 40.2977 49.3129 40.4537C48.9315 40.6097 48.6022 40.8004 48.3249 41.0257L46.4009 37.7757L52.1469 34.0317L51.9129 33.5897H44.2949V29.9497H57.0869V33.9017L50.4569 38.1137L48.3769 37.5417C48.7235 37.4377 49.0875 37.3597 49.4689 37.3077C49.8675 37.2384 50.2922 37.2037 50.7429 37.2037C52.2162 37.2037 53.4815 37.4464 54.5389 37.9317C55.5962 38.417 56.4109 39.1017 56.9829 39.9857C57.5722 40.8524 57.8669 41.8664 57.8669 43.0277V43.3397C57.8669 44.501 57.5722 45.541 56.9829 46.4597C56.4109 47.3784 55.5875 48.1064 54.5129 48.6437C53.4555 49.1637 52.1815 49.4237 50.6909 49.4237Z" fill="#EBDAC1"/>
</svg>
