<svg width="81" height="81" viewBox="0 0 81 81" fill="none" xmlns="http://www.w3.org/2000/svg">
<rect x="68.8774" y="12.3416" width="56.1763" height="56.1763" transform="rotate(90 68.8774 12.3416)" stroke="#9F7659"/>
<rect x="40.4297" width="57.1763" height="57.1763" transform="rotate(45 40.4297 0)" fill="#4D3A19"/>
<path d="M32.7328 49.4237C31.2248 49.4237 29.9334 49.181 28.8588 48.6957C27.7841 48.193 26.9088 47.517 26.2328 46.6677C25.5741 45.8184 25.0801 44.839 24.7508 43.7297C24.4388 42.603 24.2828 41.4157 24.2828 40.1677V38.6857C24.2828 36.9524 24.5861 35.3837 25.1928 33.9797C25.7994 32.5757 26.7268 31.4577 27.9748 30.6257C29.2228 29.7937 30.8088 29.3777 32.7328 29.3777C34.6568 29.3777 36.2341 29.7937 37.4648 30.6257C38.7128 31.4577 39.6401 32.5757 40.2468 33.9797C40.8534 35.3837 41.1568 36.9524 41.1568 38.6857V40.1677C41.1568 41.4157 40.9921 42.603 40.6628 43.7297C40.3508 44.839 39.8568 45.8184 39.1808 46.6677C38.5221 47.517 37.6554 48.193 36.5808 48.6957C35.5234 49.181 34.2408 49.4237 32.7328 49.4237ZM32.7328 45.4977C34.1368 45.4977 35.1768 45.0124 35.8528 44.0417C36.5461 43.0537 36.8928 41.5284 36.8928 39.4657C36.8928 37.2817 36.5374 35.713 35.8268 34.7597C35.1334 33.789 34.1021 33.3037 32.7328 33.3037C31.3288 33.3037 30.2801 33.789 29.5868 34.7597C28.8934 35.713 28.5468 37.2644 28.5468 39.4137C28.5468 41.4937 28.8848 43.0277 29.5608 44.0157C30.2541 45.0037 31.3114 45.4977 32.7328 45.4977ZM44.1909 48.9297V45.0297C44.1909 44.215 44.3209 43.5044 44.5809 42.8977C44.8582 42.291 45.2915 41.7537 45.8809 41.2857C46.4702 40.8004 47.2502 40.3497 48.2209 39.9337L51.2889 38.6077C52.0689 38.2784 52.6409 37.871 53.0049 37.3857C53.3862 36.9004 53.5769 36.285 53.5769 35.5397C53.5769 34.777 53.3429 34.153 52.8749 33.6677C52.4069 33.1824 51.7222 32.9397 50.8209 32.9397C49.9195 32.9397 49.2349 33.191 48.7669 33.6937C48.2989 34.1964 48.0649 34.8724 48.0649 35.7217H43.9309C43.9309 34.5257 44.1909 33.451 44.7109 32.4977C45.2309 31.527 46.0022 30.7644 47.0249 30.2097C48.0475 29.655 49.3129 29.3777 50.8209 29.3777C52.3289 29.3777 53.5855 29.6464 54.5909 30.1837C55.6135 30.721 56.3849 31.4404 56.9049 32.3417C57.4422 33.243 57.7109 34.257 57.7109 35.3837V35.6957C57.7109 37.1517 57.3122 38.3564 56.5149 39.3097C55.7175 40.2457 54.4869 41.0777 52.8229 41.8057L49.7809 43.1317C49.2609 43.357 48.8882 43.591 48.6629 43.8337C48.4549 44.0764 48.3509 44.4057 48.3509 44.8217V46.1217L47.3369 45.2637H57.7369V48.9297H44.1909Z" fill="#EBDAC1"/>
</svg>
